<?xml version="1.0" encoding="UTF-8" standalone="no"?>
<svg
   id="Layer_1"
   width="48"
   height="48"
   data-name="Layer 1"
   version="1.1"
   viewBox="0 0 48 48"
   sodipodi:docname="art.taunoerik.tauno-serial-plotter.svg"
   inkscape:version="1.1.1 (3bf5ae0d25, 2021-09-20)"
   inkscape:export-filename="/home/taunoerik/Documents/MyGitHub/tauno-serial-plotter/src/icons/48x48/art.taunoerik.tauno-serial-plotter.png"
   inkscape:export-xdpi="96"
   inkscape:export-ydpi="96"
   xmlns:inkscape="http://www.inkscape.org/namespaces/inkscape"
   xmlns:sodipodi="http://sodipodi.sourceforge.net/DTD/sodipodi-0.dtd"
   xmlns="http://www.w3.org/2000/svg"
   xmlns:svg="http://www.w3.org/2000/svg"
   xmlns:rdf="http://www.w3.org/1999/02/22-rdf-syntax-ns#"
   xmlns:cc="http://creativecommons.org/ns#"
   xmlns:dc="http://purl.org/dc/elements/1.1/">
  <sodipodi:namedview
     id="namedview25"
     pagecolor="#ffffff"
     bordercolor="#666666"
     borderopacity="1.0"
     inkscape:pageshadow="2"
     inkscape:pageopacity="0.0"
     inkscape:pagecheckerboard="0"
     showgrid="false"
     width="128px"
     inkscape:zoom="1.3307927"
     inkscape:cx="251.72966"
     inkscape:cy="132.252"
     inkscape:window-width="1860"
     inkscape:window-height="1131"
     inkscape:window-x="60"
     inkscape:window-y="32"
     inkscape:window-maximized="1"
     inkscape:current-layer="Layer_1" />
  <title
     id="title820">Tauno Serial Plotter</title>
  <metadata
     id="metadata13">
    <rdf:RDF>
      <cc:Work
         rdf:about="">
        <dc:title>Tauno Serial Plotter</dc:title>
      </cc:Work>
    </rdf:RDF>
  </metadata>
  <defs
     id="defs4">
    <style
       id="style2" />
    <linearGradient
       id="SVGID_2_"
       x1="1.7920001"
       x2="1.7920001"
       y1="768.495"
       y2="767.79498"
       gradientTransform="matrix(448,0,0,-448,-447,344513)"
       gradientUnits="userSpaceOnUse">
      <stop
         id="stop27"
         offset="0"
         style="stop-color:#4d4d4d" />
      <stop
         id="stop29"
         offset="1"
         style="stop-color:#444" />
    </linearGradient>
    <linearGradient
       id="SVGID_3_"
       x1="1.987"
       x2="2.0469999"
       y1="767.586"
       y2="767.88702"
       gradientTransform="matrix(256,0,0,-170.6667,-159,131463.47)"
       gradientUnits="userSpaceOnUse">
      <stop
         id="stop38"
         offset="0"
         style="stop-color:#ff9700" />
      <stop
         id="stop40"
         offset=".53"
         style="stop-color:#f48e00" />
      <stop
         id="stop42"
         offset="1"
         style="stop-color:#ce6e00" />
    </linearGradient>
    <linearGradient
       id="SVGID_3_-2"
       x1="1.987"
       x2="2.0469999"
       y1="767.586"
       y2="767.88702"
       gradientTransform="matrix(256,0,0,-170.6667,62.587857,131236.34)"
       gradientUnits="userSpaceOnUse">
      <stop
         id="stop38-9"
         offset="0"
         style="stop-color:#ff9700" />
      <stop
         id="stop40-1"
         offset=".53"
         style="stop-color:#f48e00" />
      <stop
         id="stop42-2"
         offset="1"
         style="stop-color:#ce6e00" />
    </linearGradient>
  </defs>
  <g
     style="stroke-width:1.0004;stroke-miterlimit:10;stroke-dasharray:none"
     id="g34"
     transform="matrix(0.15286624,0,0,0.15286624,-30.420378,-34.700636)">
    <linearGradient
       id="linearGradient173"
       x1="1.7920001"
       x2="1.7920001"
       y1="768.495"
       y2="767.79498"
       gradientTransform="matrix(448,0,0,-448,-447,344513)"
       gradientUnits="userSpaceOnUse">
      <stop
         id="stop169"
         offset="0"
         style="stop-color:#4d4d4d" />
      <stop
         id="stop171"
         offset="1"
         style="stop-color:#444" />
    </linearGradient>
    <g
       style="stroke-width:1.0004;stroke-miterlimit:10;stroke-dasharray:none"
       id="g198">
      <path
         style="fill:url(#SVGID_2_);stroke-width:1.0004;stroke-miterlimit:10;stroke-dasharray:none"
         id="path32"
         d="m 218.6,227 h 274.8 c 10.8,0 19.6,8.8 19.6,19.6 v 274.8 c 0,10.8 -8.8,19.6 -19.6,19.6 H 218.6 C 207.8,541 199,532.2 199,521.4 V 246.6 c 0,-10.8 8.8,-19.6 19.6,-19.6 z"
         class="st4" />
    </g>
  </g>
  <path
     style="line-height:normal;font-variant-ligatures:normal;font-variant-position:normal;font-variant-caps:normal;font-variant-numeric:normal;font-variant-alternates:normal;font-feature-settings:normal;text-indent:0;text-align:start;text-decoration:none;text-decoration-line:none;text-decoration-style:solid;text-decoration-color:#000000;text-transform:none;text-orientation:mixed;white-space:normal;shape-padding:0;isolation:auto;mix-blend-mode:normal;solid-color:#000000;solid-opacity:1;fill:#f7941d;fill-opacity:1;stroke:#f7941d;stroke-width:0.146342;stroke-linecap:butt;stroke-linejoin:round;stroke-opacity:1"
     id="path8"
     d="M 13.344801,9.6399594 C 12.000898,9.6691007 10.673435,10.114232 9.5778162,10.891764 8.312087,11.7788 7.3606422,13.045819 6.6424685,14.400251 5.7484643,16.093378 5.1726683,17.936632 4.7633262,19.80163 c -0.2893811,1.350135 -0.4994876,2.719011 -0.6002325,4.096526 -0.00942,0.193221 -0.029978,0.390072 -0.016785,0.581712 0.052136,0.07928 0.048796,0.216887 0.1597125,0.23437 0.1573399,0.08442 0.3387611,0.03538 0.5092939,0.04668 0.3649462,-0.0062 0.7335225,0.0038 1.0962199,-0.01248 0.08485,-0.05396 0.2232465,-0.05765 0.2382191,-0.177214 0.070795,-0.150427 0.034357,-0.323104 0.058755,-0.484276 0.100059,-1.416154 0.3189071,-2.823253 0.6372431,-4.206519 0.1300283,-0.563601 0.2863166,-1.147555 0.4613201,-1.709282 0.079919,-0.255773 0.1677169,-0.521518 0.2539714,-0.759502 0.4719116,-1.310928 1.0795137,-2.593295 1.96155,-3.680963 0.6784653,-0.831683 1.5555023,-1.543497 2.5995353,-1.846856 0.870431,-0.260876 1.800722,-0.235584 2.689169,-0.08899 1.110959,0.186545 2.158392,0.704748 2.992304,1.46044 0.643826,0.571278 1.175861,1.257527 1.638091,1.980809 0.03765,0.06248 0.104481,0.167359 0.152661,0.246678 0.952051,1.586534 1.586653,3.339781 2.101356,5.110214 0.248126,0.861644 0.460365,1.720254 0.654758,2.598151 0.25588,1.159956 0.470134,2.331509 0.662688,3.511441 0.3441,2.033841 0.833773,4.059632 1.675054,5.949785 0.666225,1.485229 1.576409,2.897571 2.845759,3.937586 1.142519,0.945828 2.567996,1.527111 4.037527,1.702015 2.243286,0.272948 4.574993,-0.251482 6.481343,-1.466424 1.505201,-0.948979 2.730184,-2.305699 3.610552,-3.845602 1.180575,-2.053509 1.787532,-4.390335 2.045067,-6.731955 0.16038,-1.468512 0.183123,-2.949708 0.112522,-4.424523 -0.04985,-0.07017 -0.06298,-0.183165 -0.137017,-0.225143 -0.106302,-0.0446 -0.215554,-0.06708 -0.330454,-0.04732 -0.43734,0.0256 -0.878981,0.03523 -1.313636,0.07081 -0.08229,0.05777 -0.221457,0.06726 -0.229564,0.188007 -0.06829,0.164532 -0.01189,0.34615 -0.01875,0.519099 0.07834,2.253969 -0.07933,4.536811 -0.696428,6.714142 -0.491411,1.727462 -1.296851,3.396902 -2.530953,4.718209 -1.021088,1.105041 -2.352324,1.930498 -3.814329,2.300557 -0.371892,0.09555 -0.750749,0.163382 -1.132455,0.20486 -0.05034,0.0046 -0.166331,0.01683 -0.242714,0.02222 -1.208762,0.08879 -2.46894,-0.04689 -3.555169,-0.616691 -1.162115,-0.603067 -2.048855,-1.628529 -2.693625,-2.750367 -0.350448,-0.604784 -0.639476,-1.243375 -0.889888,-1.89544 -0.02722,-0.07539 -0.07817,-0.209235 -0.10579,-0.285121 -0.0784,-0.219811 -0.148753,-0.424096 -0.220862,-0.65154 -0.461625,-1.434047 -0.752124,-2.915944 -0.988527,-4.401744 -0.440731,-2.570651 -0.993701,-5.13304 -1.86975,-7.594082 -0.606611,-1.681525 -1.365472,-3.328301 -2.442512,-4.763992 -0.960746,-1.279027 -2.209043,-2.369344 -3.686548,-3.00649 C 15.799481,9.8328598 14.567388,9.6130029 13.344801,9.6399594 Z" />
</svg>
