<svg xmlns="http://www.w3.org/2000/svg" xmlns:svg="http://www.w3.org/2000/svg" id="Layer_1" width="22" height="22" data-name="Layer 1" version="1.1" viewBox="0 0 22 22"><title id="title820">Tauno Serial Plotter</title><metadata id="metadata13"/><defs id="defs4"><style id="style2"/><linearGradient id="SVGID_2_" x1="1.792" x2="1.792" y1="768.495" y2="767.795" gradientTransform="matrix(448,0,0,-448,-447,344513)" gradientUnits="userSpaceOnUse"><stop id="stop27" offset="0" style="stop-color:#4d4d4d"/><stop id="stop29" offset="1" style="stop-color:#444"/></linearGradient><linearGradient id="SVGID_3_" x1="1.987" x2="2.047" y1="767.586" y2="767.887" gradientTransform="matrix(256,0,0,-170.6667,-159,131463.47)" gradientUnits="userSpaceOnUse"><stop id="stop38" offset="0" style="stop-color:#ff9700"/><stop id="stop40" offset=".53" style="stop-color:#f48e00"/><stop id="stop42" offset="1" style="stop-color:#ce6e00"/></linearGradient><linearGradient id="SVGID_3_-2" x1="1.987" x2="2.047" y1="767.586" y2="767.887" gradientTransform="matrix(256,0,0,-170.6667,62.587857,131236.34)" gradientUnits="userSpaceOnUse"><stop id="stop38-9" offset="0" style="stop-color:#ff9700"/><stop id="stop40-1" offset=".53" style="stop-color:#f48e00"/><stop id="stop42-2" offset="1" style="stop-color:#ce6e00"/></linearGradient></defs><g style="stroke-width:1.0004;stroke-miterlimit:10;stroke-dasharray:none" id="g34" transform="matrix(0.07006369,0,0,0.07006369,-13.942671,-15.904457)"><linearGradient id="linearGradient173" x1="1.792" x2="1.792" y1="768.495" y2="767.795" gradientTransform="matrix(448,0,0,-448,-447,344513)" gradientUnits="userSpaceOnUse"><stop id="stop169" offset="0" style="stop-color:#4d4d4d"/><stop id="stop171" offset="1" style="stop-color:#444"/></linearGradient><g style="stroke-width:1.0004;stroke-miterlimit:10;stroke-dasharray:none" id="g198"><path style="fill:url(#SVGID_2_);stroke-width:1.0004;stroke-miterlimit:10;stroke-dasharray:none" id="path32" d="m 218.6,227 h 274.8 c 10.8,0 19.6,8.8 19.6,19.6 v 274.8 c 0,10.8 -8.8,19.6 -19.6,19.6 H 218.6 C 207.8,541 199,532.2 199,521.4 V 246.6 c 0,-10.8 8.8,-19.6 19.6,-19.6 z" class="st4"/></g></g><path style="line-height:normal;font-variant-ligatures:normal;font-variant-position:normal;font-variant-caps:normal;font-variant-numeric:normal;font-variant-alternates:normal;font-feature-settings:normal;text-indent:0;text-align:start;text-decoration:none;text-decoration-line:none;text-decoration-style:solid;text-decoration-color:#000;text-transform:none;text-orientation:mixed;white-space:normal;shape-padding:0;isolation:auto;mix-blend-mode:normal;solid-color:#000;solid-opacity:1;fill:#f7941d;fill-opacity:1;stroke:#f7941d;stroke-width:.0670732;stroke-linecap:butt;stroke-linejoin:round;stroke-opacity:1" id="path8" d="M 6.1163692,4.4183155 C 5.5004137,4.4316719 4.8919932,4.6356904 4.3898344,4.9920591 3.8097085,5.3986174 3.3736297,5.9793342 3.0444667,6.6001158 2.6347148,7.3761325 2.3708083,8.2209572 2.1831932,9.0757478 2.0505602,9.6945595 1.9542613,10.321961 1.9080866,10.953322 c -0.00432,0.08856 -0.01374,0.178783 -0.00769,0.266618 0.023896,0.03634 0.022365,0.09941 0.073202,0.10742 0.072114,0.03869 0.1552655,0.01621 0.2334263,0.0214 0.167267,-0.0029 0.3361978,0.0018 0.5024341,-0.0057 0.03889,-0.02473 0.1023213,-0.02642 0.1091838,-0.08122 0.032448,-0.06895 0.015747,-0.14809 0.026929,-0.22196 C 2.891429,10.390781 2.9917344,9.7458601 3.1376384,9.111863 3.1972347,8.8535461 3.2688669,8.5859006 3.3490768,8.3284423 3.3857061,8.2112131 3.4259471,8.089413 3.4654804,7.9803372 3.6817732,7.3794952 3.9602575,6.7917437 4.3645241,6.2932292 4.6754873,5.9120411 5.0774627,5.5857927 5.5559776,5.4467536 5.9549253,5.3271851 6.3813087,5.3387774 6.7885137,5.4059675 c 0.5091893,0.0855 0.9892628,0.3230097 1.3714726,0.6693687 0.295087,0.2618354 0.5389363,0.5763665 0.7507916,0.9078706 0.017254,0.028636 0.047887,0.076706 0.06997,0.1130606 0.4363571,0.7271615 0.727216,1.530733 0.9631216,2.3421815 0.1137245,0.3949201 0.2110005,0.7884501 0.3000975,1.1908191 0.117278,0.531647 0.215477,1.068608 0.303732,1.609411 0.157712,0.932177 0.382146,1.860665 0.767733,2.726984 0.305353,0.68073 0.72252,1.328054 1.304306,1.804727 0.523654,0.433505 1.176998,0.699926 1.850533,0.780091 1.028174,0.125101 2.096872,-0.115263 2.970615,-0.672112 0.689884,-0.434948 1.251335,-1.056778 1.654837,-1.762567 0.541097,-0.941192 0.819285,-2.012237 0.937322,-3.085479 0.07351,-0.673068 0.08393,-1.35195 0.05157,-2.027907 -0.02285,-0.032162 -0.02887,-0.083951 -0.0628,-0.1031905 -0.04872,-0.020441 -0.09879,-0.030747 -0.151459,-0.02169 -0.200447,0.011732 -0.402865,0.016148 -0.602083,0.032455 -0.03772,0.02648 -0.1015,0.030826 -0.105217,0.08617 -0.0313,0.075411 -0.0054,0.1586525 -0.0086,0.2379205 0.0359,1.033069 -0.03636,2.079372 -0.319196,3.077315 -0.22523,0.791753 -0.59439,1.556913 -1.16002,2.162512 -0.467998,0.506478 -1.078148,0.884812 -1.748234,1.054423 -0.17045,0.04379 -0.344093,0.07488 -0.519042,0.09389 -0.02307,0.0021 -0.07623,0.0077 -0.111244,0.01018 -0.554016,0.0407 -1.131597,-0.02149 -1.629452,-0.282649 -0.532636,-0.276406 -0.939059,-0.74641 -1.234578,-1.260586 -0.160622,-0.277192 -0.293093,-0.56988 -0.407866,-0.868743 -0.01248,-0.03455 -0.03583,-0.0959 -0.04849,-0.13068 -0.03593,-0.100747 -0.06818,-0.194378 -0.101228,-0.298623 C 11.663541,13.133854 11.530395,12.454651 11.422044,11.773659 11.220042,10.595444 10.966598,9.4210156 10.565075,8.2930382 10.287045,7.5223391 9.9392337,6.7675669 9.4455907,6.1095418 9.0052487,5.523321 8.4331125,5.0235927 7.755923,4.7315671 7.2414308,4.5067281 6.6767214,4.4059604 6.1163692,4.4183155 Z"/></svg>