<?xml version="1.0" encoding="UTF-8" standalone="no"?>
<svg
   id="Layer_1"
   width="32"
   height="32"
   data-name="Layer 1"
   version="1.1"
   viewBox="0 0 32 32"
   sodipodi:docname="art.taunoerik.tauno-serial-plotter.svg"
   inkscape:version="1.1.1 (3bf5ae0d25, 2021-09-20)"
   inkscape:export-filename="/home/taunoerik/Documents/MyGitHub/tauno-serial-plotter/src/icons/32x32/art.taunoerik.tauno-serial-plotter.png"
   inkscape:export-xdpi="96"
   inkscape:export-ydpi="96"
   xmlns:inkscape="http://www.inkscape.org/namespaces/inkscape"
   xmlns:sodipodi="http://sodipodi.sourceforge.net/DTD/sodipodi-0.dtd"
   xmlns="http://www.w3.org/2000/svg"
   xmlns:svg="http://www.w3.org/2000/svg"
   xmlns:rdf="http://www.w3.org/1999/02/22-rdf-syntax-ns#"
   xmlns:cc="http://creativecommons.org/ns#"
   xmlns:dc="http://purl.org/dc/elements/1.1/">
  <sodipodi:namedview
     id="namedview25"
     pagecolor="#ffffff"
     bordercolor="#666666"
     borderopacity="1.0"
     inkscape:pageshadow="2"
     inkscape:pageopacity="0.0"
     inkscape:pagecheckerboard="0"
     showgrid="false"
     width="128px"
     inkscape:zoom="1.3307927"
     inkscape:cx="251.72966"
     inkscape:cy="132.252"
     inkscape:window-width="1860"
     inkscape:window-height="1131"
     inkscape:window-x="60"
     inkscape:window-y="32"
     inkscape:window-maximized="1"
     inkscape:current-layer="Layer_1" />
  <title
     id="title820">Tauno Serial Plotter</title>
  <metadata
     id="metadata13">
    <rdf:RDF>
      <cc:Work
         rdf:about="">
        <dc:title>Tauno Serial Plotter</dc:title>
      </cc:Work>
    </rdf:RDF>
  </metadata>
  <defs
     id="defs4">
    <style
       id="style2" />
    <linearGradient
       id="SVGID_2_"
       x1="1.7920001"
       x2="1.7920001"
       y1="768.495"
       y2="767.79498"
       gradientTransform="matrix(448,0,0,-448,-447,344513)"
       gradientUnits="userSpaceOnUse">
      <stop
         id="stop27"
         offset="0"
         style="stop-color:#4d4d4d" />
      <stop
         id="stop29"
         offset="1"
         style="stop-color:#444" />
    </linearGradient>
    <linearGradient
       id="SVGID_3_"
       x1="1.987"
       x2="2.0469999"
       y1="767.586"
       y2="767.88702"
       gradientTransform="matrix(256,0,0,-170.6667,-159,131463.47)"
       gradientUnits="userSpaceOnUse">
      <stop
         id="stop38"
         offset="0"
         style="stop-color:#ff9700" />
      <stop
         id="stop40"
         offset=".53"
         style="stop-color:#f48e00" />
      <stop
         id="stop42"
         offset="1"
         style="stop-color:#ce6e00" />
    </linearGradient>
    <linearGradient
       id="SVGID_3_-2"
       x1="1.987"
       x2="2.0469999"
       y1="767.586"
       y2="767.88702"
       gradientTransform="matrix(256,0,0,-170.6667,62.587857,131236.34)"
       gradientUnits="userSpaceOnUse">
      <stop
         id="stop38-9"
         offset="0"
         style="stop-color:#ff9700" />
      <stop
         id="stop40-1"
         offset=".53"
         style="stop-color:#f48e00" />
      <stop
         id="stop42-2"
         offset="1"
         style="stop-color:#ce6e00" />
    </linearGradient>
  </defs>
  <g
     style="stroke-width:1.0004;stroke-miterlimit:10;stroke-dasharray:none"
     id="g34"
     transform="matrix(0.10191083,0,0,0.10191083,-20.280251,-23.133757)">
    <linearGradient
       id="linearGradient173"
       x1="1.7920001"
       x2="1.7920001"
       y1="768.495"
       y2="767.79498"
       gradientTransform="matrix(448,0,0,-448,-447,344513)"
       gradientUnits="userSpaceOnUse">
      <stop
         id="stop169"
         offset="0"
         style="stop-color:#4d4d4d" />
      <stop
         id="stop171"
         offset="1"
         style="stop-color:#444" />
    </linearGradient>
    <g
       style="stroke-width:1.0004;stroke-miterlimit:10;stroke-dasharray:none"
       id="g198">
      <path
         style="fill:url(#SVGID_2_);stroke-width:1.0004;stroke-miterlimit:10;stroke-dasharray:none"
         id="path32"
         d="m 218.6,227 h 274.8 c 10.8,0 19.6,8.8 19.6,19.6 v 274.8 c 0,10.8 -8.8,19.6 -19.6,19.6 H 218.6 C 207.8,541 199,532.2 199,521.4 V 246.6 c 0,-10.8 8.8,-19.6 19.6,-19.6 z"
         class="st4" />
    </g>
  </g>
  <path
     style="line-height:normal;font-variant-ligatures:normal;font-variant-position:normal;font-variant-caps:normal;font-variant-numeric:normal;font-variant-alternates:normal;font-feature-settings:normal;text-indent:0;text-align:start;text-decoration:none;text-decoration-line:none;text-decoration-style:solid;text-decoration-color:#000000;text-transform:none;text-orientation:mixed;white-space:normal;shape-padding:0;isolation:auto;mix-blend-mode:normal;solid-color:#000000;solid-opacity:1;fill:#f7941d;fill-opacity:1;stroke:#f7941d;stroke-width:0.097561;stroke-linecap:butt;stroke-linejoin:round;stroke-opacity:1"
     id="path8"
     d="M 8.8965353,6.4266401 C 8.0006001,6.4460676 7.1156248,6.7428218 6.3852121,7.2611763 5.5413925,7.8525338 4.907096,8.6972128 4.4283135,9.6001678 3.8323108,10.728919 3.4484468,11.957755 3.175552,13.201087 c -0.1929207,0.90009 -0.3329917,1.812674 -0.400155,2.731018 -0.00628,0.128813 -0.019985,0.260047 -0.01119,0.387807 0.034758,0.05285 0.032531,0.144592 0.106475,0.156247 0.1048933,0.05628 0.2258408,0.02359 0.3395293,0.03112 0.2432975,-0.0042 0.489015,0.0026 0.7308132,-0.0083 0.056567,-0.03597 0.148831,-0.03843 0.1588128,-0.118143 0.047197,-0.100285 0.022905,-0.215403 0.03917,-0.32285 0.066706,-0.944124 0.2126047,-1.88219 0.4248287,-2.804368 0.086685,-0.375733 0.1908778,-0.765036 0.3075468,-1.139521 C 4.9246618,11.943582 4.983194,11.766418 5.040697,11.607763 5.3553048,10.733811 5.7603728,9.8788993 6.3483971,9.1537873 6.8007071,8.5993318 7.3853986,8.1247888 8.0814203,7.9225501 8.6617078,7.7486323 9.2819018,7.7654938 9.8742001,7.8632248 c 0.7406389,0.1243638 1.4389279,0.4698323 1.9948689,0.9736273 0.429218,0.3808515 0.783908,0.8383512 1.092061,1.3205389 0.0251,0.04165 0.06965,0.111573 0.101774,0.164452 0.634701,1.057689 1.057768,2.226521 1.400904,3.406809 0.165417,0.57443 0.30691,1.146837 0.436505,1.732101 0.170587,0.773304 0.313423,1.554339 0.441792,2.340961 0.2294,1.355894 0.555849,2.706421 1.116703,3.966523 0.44415,0.990153 1.050939,1.931714 1.897173,2.625057 0.761679,0.630552 1.711997,1.018075 2.691684,1.134677 1.495524,0.181965 3.049995,-0.167655 4.320895,-0.977616 1.003468,-0.632653 1.820123,-1.537133 2.407035,-2.563735 0.78705,-1.369006 1.191688,-2.92689 1.363378,-4.48797 0.10692,-0.979007 0.122082,-1.966472 0.07502,-2.949681 -0.03324,-0.04678 -0.04199,-0.122111 -0.09135,-0.150096 -0.07087,-0.02973 -0.143703,-0.04472 -0.220303,-0.03155 -0.29156,0.01707 -0.585987,0.02349 -0.875757,0.04721 -0.05486,0.03852 -0.147638,0.04484 -0.153043,0.125338 -0.04553,0.109688 -0.0079,0.230767 -0.0125,0.346066 0.05222,1.502646 -0.05289,3.024541 -0.464285,4.476095 -0.327607,1.151641 -0.864567,2.264601 -1.687302,3.145472 -0.680725,0.736695 -1.568216,1.286999 -2.542886,1.533705 -0.247928,0.0637 -0.500499,0.108921 -0.75497,0.136573 -0.03356,0.003 -0.110887,0.01122 -0.161809,0.01481 -0.805841,0.0592 -1.64596,-0.03126 -2.370113,-0.411127 -0.774743,-0.402044 -1.365903,-1.085686 -1.79575,-1.833578 -0.233632,-0.403189 -0.426317,-0.828917 -0.593258,-1.263626 -0.01815,-0.05026 -0.05211,-0.139491 -0.07053,-0.190081 -0.05227,-0.146541 -0.09917,-0.282731 -0.147241,-0.43436 C 16.965149,19.103787 16.771482,18.115855 16.61388,17.125322 16.32006,15.411554 15.951413,13.703295 15.367381,12.0626 14.962973,10.941584 14.457066,9.8437331 13.739039,8.8866056 13.098542,8.0339208 12.266344,7.3070433 11.281341,6.8822788 10.532989,6.5552403 9.7115931,6.4086691 8.8965353,6.4266401 Z" />
</svg>
