<?xml version="1.0" encoding="UTF-8" standalone="no"?>
<svg
   id="Layer_1"
   width="192"
   height="192"
   data-name="Layer 1"
   version="1.1"
   viewBox="0 0 192 192"
   sodipodi:docname="art.taunoerik.tauno-serial-plotter.svg"
   inkscape:version="1.1.1 (3bf5ae0d25, 2021-09-20)"
   inkscape:export-filename="/home/taunoerik/Documents/MyGitHub/tauno-serial-plotter/src/icons/192x192/art.taunoerik.tauno-serial-plotter.png"
   inkscape:export-xdpi="96"
   inkscape:export-ydpi="96"
   xmlns:inkscape="http://www.inkscape.org/namespaces/inkscape"
   xmlns:sodipodi="http://sodipodi.sourceforge.net/DTD/sodipodi-0.dtd"
   xmlns="http://www.w3.org/2000/svg"
   xmlns:svg="http://www.w3.org/2000/svg"
   xmlns:rdf="http://www.w3.org/1999/02/22-rdf-syntax-ns#"
   xmlns:cc="http://creativecommons.org/ns#"
   xmlns:dc="http://purl.org/dc/elements/1.1/">
  <sodipodi:namedview
     id="namedview25"
     pagecolor="#ffffff"
     bordercolor="#666666"
     borderopacity="1.0"
     inkscape:pageshadow="2"
     inkscape:pageopacity="0.0"
     inkscape:pagecheckerboard="0"
     showgrid="false"
     width="128px"
     inkscape:zoom="1.3307927"
     inkscape:cx="251.72966"
     inkscape:cy="132.252"
     inkscape:window-width="1860"
     inkscape:window-height="1131"
     inkscape:window-x="60"
     inkscape:window-y="32"
     inkscape:window-maximized="1"
     inkscape:current-layer="Layer_1" />
  <title
     id="title820">Tauno Serial Plotter</title>
  <metadata
     id="metadata13">
    <rdf:RDF>
      <cc:Work
         rdf:about="">
        <dc:title>Tauno Serial Plotter</dc:title>
      </cc:Work>
    </rdf:RDF>
  </metadata>
  <defs
     id="defs4">
    <style
       id="style2" />
    <linearGradient
       id="SVGID_2_"
       x1="1.7920001"
       x2="1.7920001"
       y1="768.495"
       y2="767.79498"
       gradientTransform="matrix(448,0,0,-448,-447,344513)"
       gradientUnits="userSpaceOnUse">
      <stop
         id="stop27"
         offset="0"
         style="stop-color:#4d4d4d" />
      <stop
         id="stop29"
         offset="1"
         style="stop-color:#444" />
    </linearGradient>
    <linearGradient
       id="SVGID_3_"
       x1="1.987"
       x2="2.0469999"
       y1="767.586"
       y2="767.88702"
       gradientTransform="matrix(256,0,0,-170.6667,-159,131463.47)"
       gradientUnits="userSpaceOnUse">
      <stop
         id="stop38"
         offset="0"
         style="stop-color:#ff9700" />
      <stop
         id="stop40"
         offset=".53"
         style="stop-color:#f48e00" />
      <stop
         id="stop42"
         offset="1"
         style="stop-color:#ce6e00" />
    </linearGradient>
    <linearGradient
       id="SVGID_3_-2"
       x1="1.987"
       x2="2.0469999"
       y1="767.586"
       y2="767.88702"
       gradientTransform="matrix(256,0,0,-170.6667,62.587857,131236.34)"
       gradientUnits="userSpaceOnUse">
      <stop
         id="stop38-9"
         offset="0"
         style="stop-color:#ff9700" />
      <stop
         id="stop40-1"
         offset=".53"
         style="stop-color:#f48e00" />
      <stop
         id="stop42-2"
         offset="1"
         style="stop-color:#ce6e00" />
    </linearGradient>
  </defs>
  <g
     style="stroke-width:1.0004;stroke-miterlimit:10;stroke-dasharray:none"
     id="g34"
     transform="matrix(0.61146497,0,0,0.61146497,-121.68152,-138.80255)">
    <linearGradient
       id="linearGradient173"
       x1="1.7920001"
       x2="1.7920001"
       y1="768.495"
       y2="767.79498"
       gradientTransform="matrix(448,0,0,-448,-447,344513)"
       gradientUnits="userSpaceOnUse">
      <stop
         id="stop169"
         offset="0"
         style="stop-color:#4d4d4d" />
      <stop
         id="stop171"
         offset="1"
         style="stop-color:#444" />
    </linearGradient>
    <g
       style="stroke-width:1.0004;stroke-miterlimit:10;stroke-dasharray:none"
       id="g198">
      <path
         style="fill:url(#SVGID_2_);stroke-width:1.0004;stroke-miterlimit:10;stroke-dasharray:none"
         id="path32"
         d="m 218.6,227 h 274.8 c 10.8,0 19.6,8.8 19.6,19.6 v 274.8 c 0,10.8 -8.8,19.6 -19.6,19.6 H 218.6 C 207.8,541 199,532.2 199,521.4 V 246.6 c 0,-10.8 8.8,-19.6 19.6,-19.6 z"
         class="st4" />
    </g>
  </g>
  <path
     style="line-height:normal;font-variant-ligatures:normal;font-variant-position:normal;font-variant-caps:normal;font-variant-numeric:normal;font-variant-alternates:normal;font-feature-settings:normal;text-indent:0;text-align:start;text-decoration:none;text-decoration-line:none;text-decoration-style:solid;text-decoration-color:#000000;text-transform:none;text-orientation:mixed;white-space:normal;shape-padding:0;isolation:auto;mix-blend-mode:normal;solid-color:#000000;solid-opacity:1;fill:#f7941d;fill-opacity:1;stroke:#f7941d;stroke-width:0.585366;stroke-linecap:butt;stroke-linejoin:round;stroke-opacity:1"
     id="path8"
     d="m 53.379193,38.559834 c -5.375611,0.116565 -10.685463,1.89709 -15.067939,5.007217 -5.062917,3.548145 -8.868696,8.616219 -11.741391,14.033949 -3.576017,6.772509 -5.879201,14.145525 -7.516569,21.605516 -1.157525,5.400538 -1.997951,10.876044 -2.40093,16.386105 -0.03769,0.772882 -0.11991,1.560286 -0.06714,2.326846 0.208545,0.317123 0.195184,0.867548 0.63885,0.937482 0.629359,0.337668 1.355044,0.14151 2.037175,0.186726 1.459785,-0.02494 2.93409,0.01539 4.38488,-0.04993 0.3394,-0.215842 0.892986,-0.230587 0.952876,-0.708855 0.283179,-0.60171 0.13743,-1.292418 0.23502,-1.937104 0.400236,-5.664615 1.275629,-11.293013 2.548973,-16.826078 0.520113,-2.254402 1.145266,-4.590217 1.84528,-6.837126 0.319674,-1.023091 0.670868,-2.086074 1.015886,-3.038008 1.887646,-5.243712 4.318054,-10.37318 7.8462,-14.723852 2.71386,-3.326733 6.222009,-6.173991 10.398139,-7.387423 3.481725,-1.043507 7.202889,-0.942338 10.756679,-0.355952 4.443834,0.746183 8.633567,2.818994 11.969216,5.841764 2.575305,2.285109 4.703443,5.030107 6.552363,7.923234 0.150585,0.249915 0.417922,0.669435 0.610642,0.98671 3.808208,6.346137 6.346613,13.359125 8.405426,20.440857 0.992505,3.446576 1.841461,6.881018 2.619033,10.392603 1.023517,4.639827 1.880533,9.326035 2.650752,14.045765 1.3764,8.13536 3.335092,16.23853 6.700215,23.79913 2.664901,5.94092 6.305641,11.59029 11.383041,15.75035 4.57007,3.78331 10.27198,6.10845 16.1501,6.80806 8.97315,1.09179 18.29997,-1.00593 25.92537,-5.8657 6.02081,-3.79591 10.92074,-9.22279 14.44221,-15.38241 4.7223,-8.21402 7.15013,-17.56133 8.18027,-26.9278 0.64152,-5.874056 0.73249,-11.798842 0.45009,-17.6981 -0.19941,-0.280689 -0.25194,-0.732662 -0.54807,-0.900575 -0.42521,-0.17839 -0.86222,-0.268336 -1.32182,-0.189295 -1.74936,0.10239 -3.51592,0.140925 -5.25454,0.283246 -0.32916,0.231098 -0.88583,0.269024 -0.91826,0.752027 -0.27318,0.658126 -0.0476,1.3846 -0.075,2.076397 0.31335,9.015875 -0.31732,18.14725 -2.78571,26.85657 -1.96564,6.90985 -5.1874,13.58761 -10.12381,18.87283 -4.08435,4.42017 -9.40929,7.72199 -15.25732,9.20224 -1.48756,0.3822 -3.00299,0.65351 -4.52981,0.81943 -0.20137,0.0183 -0.66533,0.0673 -0.97086,0.0889 -4.83505,0.35517 -9.87576,-0.18755 -14.22068,-2.46676 -4.64846,-2.41226 -8.19542,-6.51412 -10.7745,-11.00147 -1.40179,-2.41913 -2.5579,-4.9735 -3.55955,-7.58176 -0.10888,-0.30155 -0.31267,-0.83694 -0.42316,-1.14048 -0.31359,-0.87924 -0.59501,-1.69638 -0.88345,-2.60616 -1.8465,-5.73619 -3.00849,-11.66378 -3.954106,-17.60697 C 97.920341,92.469319 95.70846,82.219762 92.204267,72.375595 89.77782,65.649495 86.742375,59.062392 82.434218,53.319627 78.591233,48.203518 73.598045,43.842253 67.688027,41.293666 63.197913,39.331435 58.26954,38.452008 53.379193,38.559834 Z" />
</svg>
