<?xml version="1.0" encoding="UTF-8" standalone="no"?>
<svg
   xmlns:dc="http://purl.org/dc/elements/1.1/"
   xmlns:cc="http://creativecommons.org/ns#"
   xmlns:rdf="http://www.w3.org/1999/02/22-rdf-syntax-ns#"
   xmlns:svg="http://www.w3.org/2000/svg"
   xmlns="http://www.w3.org/2000/svg"
   xmlns:sodipodi="http://sodipodi.sourceforge.net/DTD/sodipodi-0.dtd"
   xmlns:inkscape="http://www.inkscape.org/namespaces/inkscape"
   id="Layer_1"
   data-name="Layer 1"
   version="1.1"
   viewBox="0 0 327.99999 327.99999"
   sodipodi:docname="tauno-plotter-new.svg"
   width="328"
   height="328"
   inkscape:version="1.0.1 (3bc2e813f5, 2020-09-07)">
  <sodipodi:namedview
     pagecolor="#ffffff"
     bordercolor="#666666"
     borderopacity="1"
     objecttolerance="10"
     gridtolerance="10"
     guidetolerance="10"
     inkscape:pageopacity="0"
     inkscape:pageshadow="2"
     inkscape:window-width="1920"
     inkscape:window-height="1136"
     id="namedview9"
     showgrid="false"
     inkscape:zoom="0.74660907"
     inkscape:cx="-113.15206"
     inkscape:cy="-77.10767"
     inkscape:window-x="0"
     inkscape:window-y="27"
     inkscape:window-maximized="1"
     inkscape:current-layer="Layer_1" />
  <title
     id="title820">Tauno Serial Plotter</title>
  <metadata
     id="metadata13">
    <rdf:RDF>
      <cc:Work
         rdf:about="">
        <dc:format>image/svg+xml</dc:format>
        <dc:type
           rdf:resource="http://purl.org/dc/dcmitype/StillImage" />
        <dc:title>Tauno Serial Plotter</dc:title>
      </cc:Work>
    </rdf:RDF>
  </metadata>
  <defs
     id="defs4">
    <style
       id="style2">.cls-1{fill:#353535;stroke:#e6e7e8;stroke-width:2.83px;stroke-miterlimit:10}</style>
    <linearGradient
       id="SVGID_2_"
       gradientUnits="userSpaceOnUse"
       x1="1.7924"
       y1="768.49548"
       x2="1.7924"
       y2="767.79462"
       gradientTransform="matrix(448,0,0,-448,-447,344513)">
      <stop
         offset="0"
         style="stop-color:#4D4D4D"
         id="stop27" />
      <stop
         offset="1"
         style="stop-color:#444444"
         id="stop29" />
    </linearGradient>
    <linearGradient
       id="SVGID_3_"
       gradientUnits="userSpaceOnUse"
       x1="1.9868"
       y1="767.58569"
       x2="2.0469"
       y2="767.88678"
       gradientTransform="matrix(256,0,0,-170.6667,-159,131463.47)">
      <stop
         offset="0"
         style="stop-color:#FF9700"
         id="stop38" />
      <stop
         offset="0.53"
         style="stop-color:#F48E00"
         id="stop40" />
      <stop
         offset="1"
         style="stop-color:#CE6E00"
         id="stop42" />
    </linearGradient>
    <linearGradient
       id="SVGID_3_-2"
       gradientUnits="userSpaceOnUse"
       x1="1.9868"
       y1="767.58569"
       x2="2.0469"
       y2="767.88678"
       gradientTransform="matrix(256,0,0,-170.6667,62.587857,131236.34)">
      <stop
         offset="0"
         style="stop-color:#FF9700"
         id="stop38-9" />
      <stop
         offset="0.53"
         style="stop-color:#F48E00"
         id="stop40-1" />
      <stop
         offset="1"
         style="stop-color:#CE6E00"
         id="stop42-2" />
    </linearGradient>
  </defs>
  <g
     id="g34"
     transform="matrix(1.044586,0,0,1.044586,-207.87261,-237.12102)"
     style="stroke-width:1.00039633;stroke-miterlimit:10;stroke-dasharray:none">
    <linearGradient
       id="linearGradient173"
       gradientUnits="userSpaceOnUse"
       x1="1.7924"
       y1="768.49548"
       x2="1.7924"
       y2="767.79462"
       gradientTransform="matrix(448,0,0,-448,-447,344513)">
      <stop
         offset="0"
         style="stop-color:#4D4D4D"
         id="stop169" />
      <stop
         offset="1"
         style="stop-color:#444444"
         id="stop171" />
    </linearGradient>
    <g
       id="g198"
       style="stroke-width:1.00039633;stroke-miterlimit:10;stroke-dasharray:none">
      <path
         class="st4"
         d="m 218.6,227 h 274.8 c 10.8,0 19.6,8.8 19.6,19.6 v 274.8 c 0,10.8 -8.8,19.6 -19.6,19.6 H 218.6 C 207.8,541 199,532.2 199,521.4 V 246.6 c 0,-10.8 8.8,-19.6 19.6,-19.6 z"
         id="path32"
         style="fill:url(#SVGID_2_);stroke-width:1.00039633;stroke-miterlimit:10;stroke-dasharray:none" />
    </g>
  </g>
  <path
     id="path8"
     fill="#f7941d"
     fill-opacity="1"
     fill-rule="nonzero"
     stroke="none"
     stroke-dasharray="none"
     stroke-dashoffset="0"
     stroke-linecap="butt"
     stroke-linejoin="miter"
     stroke-miterlimit="10"
     stroke-opacity="1"
     stroke-width="10"
     d="m 92.536878,67.855482 c -14.16571,-0.0139 -25.63087,6.27116 -34.09766,15.33008 -8.46679,9.05892 -14.2474,20.793208 -18.36524,32.566398 -4.11783,11.77319 -6.54465,23.62316 -7.96289,33.01758 -1.41823,9.39442 -1.83311,15.88978 -1.81836,18.44533 l 10,-0.0586 c -0.005,-0.90946 0.3559,-7.94459 1.70704,-16.89454 1.35113,-8.94995 3.684,-20.25772 7.51367,-31.20703 3.82967,-10.94931 9.18484,-21.500558 16.23242,-29.041008 7.04673,-7.53954 15.47512,-12.16817 26.77734,-12.15821 19.057162,0.0368 32.271662,9.11937 43.019532,26.800778 10.74788,17.68142 18.22375,44.00526 23.50391,76.39454 4.81636,29.54917 13.12717,49.21514 24.4043,61.73438 11.27738,12.51951 25.57417,17.35937 40.21093,17.35937 19.72754,0 39.47808,-8.64492 53.46094,-26.9707 13.98286,-18.32578 22.18839,-46.00834 20.32227,-83.96485 l -9.98633,0.49218 c 1.78387,36.28351 -6.10997,61.44704 -18.28711,77.40626 -12.17714,15.95922 -28.64731,23.03711 -45.50977,23.03711 -12.56323,0 -23.38113,-3.61725 -32.78125,-14.05273 -9.40012,-10.43549 -17.3292,-28.22066 -21.96289,-56.65039 -5.37984,-33.00074 -12.88795,-60.33245 -24.83008,-79.978528 -11.94212,-19.64607 -29.12403,-31.56417 -51.546872,-31.60742 h -0.002 z"
     baseline-shift="baseline"
     clip-rule="nonzero"
     color="#000000"
     color-interpolation="sRGB"
     color-interpolation-filters="linearRGB"
     color-rendering="auto"
     direction="ltr"
     display="inline"
     dominant-baseline="auto"
     enable-background="accumulate"
     font-family="sans-serif"
     font-size="medium"
     font-stretch="normal"
     font-style="normal"
     font-variant="normal"
     font-weight="normal"
     image-rendering="auto"
     letter-spacing="normal"
     opacity="1"
     overflow="visible"
     shape-rendering="auto"
     text-anchor="start"
     text-decoration="none"
     text-rendering="auto"
     vector-effect="none"
     visibility="visible"
     word-spacing="normal"
     writing-mode="lr-tb"
     style="line-height:normal;font-variant-ligatures:normal;font-variant-position:normal;font-variant-caps:normal;font-variant-numeric:normal;font-variant-alternates:normal;font-feature-settings:normal;text-indent:0;text-align:start;text-decoration:none;text-decoration-line:none;text-decoration-style:solid;text-decoration-color:#000000;text-transform:none;text-orientation:mixed;white-space:normal;shape-padding:0;isolation:auto;mix-blend-mode:normal;solid-color:#000000;solid-opacity:1;stroke:#f7941d;stroke-opacity:1;stroke-linecap:butt;stroke-linejoin:round" />
</svg>
