<svg xmlns="http://www.w3.org/2000/svg" xmlns:svg="http://www.w3.org/2000/svg" id="Layer_1" width="128" height="128" data-name="Layer 1" version="1.1" viewBox="0 0 128 128"><title id="title820">Tauno Serial Plotter</title><metadata id="metadata13"/><defs id="defs4"><style id="style2"/><linearGradient id="SVGID_2_" x1="1.792" x2="1.792" y1="768.495" y2="767.795" gradientTransform="matrix(448,0,0,-448,-447,344513)" gradientUnits="userSpaceOnUse"><stop id="stop27" offset="0" style="stop-color:#4d4d4d"/><stop id="stop29" offset="1" style="stop-color:#444"/></linearGradient><linearGradient id="SVGID_3_" x1="1.987" x2="2.047" y1="767.586" y2="767.887" gradientTransform="matrix(256,0,0,-170.6667,-159,131463.47)" gradientUnits="userSpaceOnUse"><stop id="stop38" offset="0" style="stop-color:#ff9700"/><stop id="stop40" offset=".53" style="stop-color:#f48e00"/><stop id="stop42" offset="1" style="stop-color:#ce6e00"/></linearGradient><linearGradient id="SVGID_3_-2" x1="1.987" x2="2.047" y1="767.586" y2="767.887" gradientTransform="matrix(256,0,0,-170.6667,62.587857,131236.34)" gradientUnits="userSpaceOnUse"><stop id="stop38-9" offset="0" style="stop-color:#ff9700"/><stop id="stop40-1" offset=".53" style="stop-color:#f48e00"/><stop id="stop42-2" offset="1" style="stop-color:#ce6e00"/></linearGradient></defs><g style="stroke-width:1.0004;stroke-miterlimit:10;stroke-dasharray:none" id="g34" transform="matrix(0.40764331,0,0,0.40764331,-81.121015,-92.53503)"><linearGradient id="linearGradient173" x1="1.792" x2="1.792" y1="768.495" y2="767.795" gradientTransform="matrix(448,0,0,-448,-447,344513)" gradientUnits="userSpaceOnUse"><stop id="stop169" offset="0" style="stop-color:#4d4d4d"/><stop id="stop171" offset="1" style="stop-color:#444"/></linearGradient><g style="stroke-width:1.0004;stroke-miterlimit:10;stroke-dasharray:none" id="g198"><path style="fill:url(#SVGID_2_);stroke-width:1.0004;stroke-miterlimit:10;stroke-dasharray:none" id="path32" d="m 218.6,227 h 274.8 c 10.8,0 19.6,8.8 19.6,19.6 v 274.8 c 0,10.8 -8.8,19.6 -19.6,19.6 H 218.6 C 207.8,541 199,532.2 199,521.4 V 246.6 c 0,-10.8 8.8,-19.6 19.6,-19.6 z" class="st4"/></g></g><path style="line-height:normal;font-variant-ligatures:normal;font-variant-position:normal;font-variant-caps:normal;font-variant-numeric:normal;font-variant-alternates:normal;font-feature-settings:normal;text-indent:0;text-align:start;text-decoration:none;text-decoration-line:none;text-decoration-style:solid;text-decoration-color:#000;text-transform:none;text-orientation:mixed;white-space:normal;shape-padding:0;isolation:auto;mix-blend-mode:normal;solid-color:#000;solid-opacity:1;fill:#f7941d;fill-opacity:1;stroke:#f7941d;stroke-width:.390244;stroke-linecap:butt;stroke-linejoin:round;stroke-opacity:1" id="path8" d="m 35.58613,25.706556 c -3.583741,0.07771 -7.123642,1.264727 -10.045293,3.338145 -3.375278,2.36543 -5.912464,5.744146 -7.827594,9.355966 -2.384011,4.515006 -3.919467,9.43035 -5.011046,14.403677 -0.771683,3.600359 -1.331967,7.250696 -1.60062,10.92407 -0.02513,0.515255 -0.07994,1.040191 -0.04476,1.551231 0.13903,0.211415 0.130123,0.578365 0.4259,0.624988 0.419573,0.225112 0.903363,0.09434 1.358117,0.124484 0.97319,-0.01663 1.95606,0.01026 2.923253,-0.03329 0.226267,-0.143895 0.595324,-0.153725 0.635251,-0.47257 0.188786,-0.40114 0.09162,-0.861612 0.15668,-1.291403 0.266824,-3.77641 0.850419,-7.528675 1.699315,-11.217385 0.346742,-1.502935 0.763511,-3.060145 1.230187,-4.558084 0.213116,-0.682061 0.447245,-1.390716 0.677257,-2.025339 1.258431,-3.495808 2.878703,-6.915453 5.2308,-9.815901 1.80924,-2.217822 4.148006,-4.115994 6.932093,-4.924949 2.32115,-0.695671 4.801926,-0.628225 7.171119,-0.237301 2.962556,0.497455 5.755711,1.879329 7.979477,3.894509 1.71687,1.523406 3.135629,3.353405 4.368242,5.282156 0.10039,0.16661 0.278615,0.44629 0.407095,0.657807 2.538805,4.230758 4.231075,8.906083 5.603617,13.627238 0.66167,2.297717 1.227641,4.587345 1.746022,6.928402 0.682345,3.093218 1.253689,6.217358 1.767168,9.363844 0.9176,5.423575 2.223395,10.825686 4.46681,15.866092 1.776601,3.960612 4.203758,7.726856 7.588691,10.50023 3.046716,2.522207 6.847988,4.072297 10.766739,4.538707 5.982096,0.72786 12.19998,-0.67062 17.28358,-3.910465 4.01387,-2.530611 7.28049,-6.148531 9.62814,-10.254939 3.1482,-5.476023 4.76675,-11.707559 5.45351,-17.951879 0.42768,-3.916031 0.48833,-7.865888 0.30006,-11.798727 -0.13294,-0.187126 -0.16796,-0.488441 -0.36538,-0.600383 -0.28347,-0.118927 -0.57481,-0.178891 -0.88121,-0.126197 -1.16624,0.06826 -2.34395,0.09395 -3.50303,0.188831 -0.21944,0.154065 -0.59055,0.179349 -0.61217,0.501351 -0.18212,0.438751 -0.0317,0.923067 -0.05,1.384265 0.2089,6.010583 -0.21155,12.098162 -1.85714,17.904378 -1.31043,4.606564 -3.45827,9.058404 -6.74921,12.581889 -2.7229,2.946778 -6.272862,5.147996 -10.171543,6.134821 -0.991711,0.254806 -2.001998,0.435684 -3.019879,0.546291 -0.134244,0.01218 -0.443551,0.04489 -0.647239,0.05924 -3.223364,0.23678 -6.58384,-0.125034 -9.480449,-1.644507 C 76.419717,93.51767 74.055077,90.783103 72.335689,87.791536 71.401161,86.178779 70.630421,84.475868 69.962655,82.73703 69.890066,82.535992 69.75421,82.179068 69.680548,81.976707 69.471486,81.390545 69.283873,80.845784 69.091584,80.239267 67.860583,76.415142 67.085918,72.463415 66.45551,68.501284 65.280228,61.646213 63.805641,54.813175 61.469512,48.250397 59.851881,43.76633 57.828251,39.374928 54.956146,35.546418 52.394156,32.135679 49.065364,29.228169 45.125352,27.529111 42.131943,26.220957 38.846361,25.634672 35.58613,25.706556 Z"/></svg>