<?xml version="1.0" encoding="UTF-8" standalone="no"?>
<svg
   id="Layer_1"
   width="64"
   height="64"
   data-name="Layer 1"
   version="1.1"
   viewBox="0 0 64 64"
   sodipodi:docname="art.taunoerik.tauno-serial-plotter.svg"
   inkscape:version="1.1.1 (3bf5ae0d25, 2021-09-20)"
   inkscape:export-filename="/home/taunoerik/Documents/MyGitHub/tauno-serial-plotter/src/icons/64x64/art.taunoerik.tauno-serial-plotter.png"
   inkscape:export-xdpi="96"
   inkscape:export-ydpi="96"
   xmlns:inkscape="http://www.inkscape.org/namespaces/inkscape"
   xmlns:sodipodi="http://sodipodi.sourceforge.net/DTD/sodipodi-0.dtd"
   xmlns="http://www.w3.org/2000/svg"
   xmlns:svg="http://www.w3.org/2000/svg"
   xmlns:rdf="http://www.w3.org/1999/02/22-rdf-syntax-ns#"
   xmlns:cc="http://creativecommons.org/ns#"
   xmlns:dc="http://purl.org/dc/elements/1.1/">
  <sodipodi:namedview
     id="namedview25"
     pagecolor="#ffffff"
     bordercolor="#666666"
     borderopacity="1.0"
     inkscape:pageshadow="2"
     inkscape:pageopacity="0.0"
     inkscape:pagecheckerboard="0"
     showgrid="false"
     width="128px"
     inkscape:zoom="1.3307927"
     inkscape:cx="251.72966"
     inkscape:cy="132.252"
     inkscape:window-width="1860"
     inkscape:window-height="1131"
     inkscape:window-x="60"
     inkscape:window-y="32"
     inkscape:window-maximized="1"
     inkscape:current-layer="Layer_1" />
  <title
     id="title820">Tauno Serial Plotter</title>
  <metadata
     id="metadata13">
    <rdf:RDF>
      <cc:Work
         rdf:about="">
        <dc:title>Tauno Serial Plotter</dc:title>
      </cc:Work>
    </rdf:RDF>
  </metadata>
  <defs
     id="defs4">
    <style
       id="style2" />
    <linearGradient
       id="SVGID_2_"
       x1="1.7920001"
       x2="1.7920001"
       y1="768.495"
       y2="767.79498"
       gradientTransform="matrix(448,0,0,-448,-447,344513)"
       gradientUnits="userSpaceOnUse">
      <stop
         id="stop27"
         offset="0"
         style="stop-color:#4d4d4d" />
      <stop
         id="stop29"
         offset="1"
         style="stop-color:#444" />
    </linearGradient>
    <linearGradient
       id="SVGID_3_"
       x1="1.987"
       x2="2.0469999"
       y1="767.586"
       y2="767.88702"
       gradientTransform="matrix(256,0,0,-170.6667,-159,131463.47)"
       gradientUnits="userSpaceOnUse">
      <stop
         id="stop38"
         offset="0"
         style="stop-color:#ff9700" />
      <stop
         id="stop40"
         offset=".53"
         style="stop-color:#f48e00" />
      <stop
         id="stop42"
         offset="1"
         style="stop-color:#ce6e00" />
    </linearGradient>
    <linearGradient
       id="SVGID_3_-2"
       x1="1.987"
       x2="2.0469999"
       y1="767.586"
       y2="767.88702"
       gradientTransform="matrix(256,0,0,-170.6667,62.587857,131236.34)"
       gradientUnits="userSpaceOnUse">
      <stop
         id="stop38-9"
         offset="0"
         style="stop-color:#ff9700" />
      <stop
         id="stop40-1"
         offset=".53"
         style="stop-color:#f48e00" />
      <stop
         id="stop42-2"
         offset="1"
         style="stop-color:#ce6e00" />
    </linearGradient>
  </defs>
  <g
     style="stroke-width:1.0004;stroke-miterlimit:10;stroke-dasharray:none"
     id="g34"
     transform="matrix(0.20382166,0,0,0.20382166,-40.560506,-46.267515)">
    <linearGradient
       id="linearGradient173"
       x1="1.7920001"
       x2="1.7920001"
       y1="768.495"
       y2="767.79498"
       gradientTransform="matrix(448,0,0,-448,-447,344513)"
       gradientUnits="userSpaceOnUse">
      <stop
         id="stop169"
         offset="0"
         style="stop-color:#4d4d4d" />
      <stop
         id="stop171"
         offset="1"
         style="stop-color:#444" />
    </linearGradient>
    <g
       style="stroke-width:1.0004;stroke-miterlimit:10;stroke-dasharray:none"
       id="g198">
      <path
         style="fill:url(#SVGID_2_);stroke-width:1.0004;stroke-miterlimit:10;stroke-dasharray:none"
         id="path32"
         d="m 218.6,227 h 274.8 c 10.8,0 19.6,8.8 19.6,19.6 v 274.8 c 0,10.8 -8.8,19.6 -19.6,19.6 H 218.6 C 207.8,541 199,532.2 199,521.4 V 246.6 c 0,-10.8 8.8,-19.6 19.6,-19.6 z"
         class="st4" />
    </g>
  </g>
  <path
     style="line-height:normal;font-variant-ligatures:normal;font-variant-position:normal;font-variant-caps:normal;font-variant-numeric:normal;font-variant-alternates:normal;font-feature-settings:normal;text-indent:0;text-align:start;text-decoration:none;text-decoration-line:none;text-decoration-style:solid;text-decoration-color:#000000;text-transform:none;text-orientation:mixed;white-space:normal;shape-padding:0;isolation:auto;mix-blend-mode:normal;solid-color:#000000;solid-opacity:1;fill:#f7941d;fill-opacity:1;stroke:#f7941d;stroke-width:0.195122;stroke-linecap:butt;stroke-linejoin:round;stroke-opacity:1"
     id="path8"
     d="m 17.793067,12.853279 c -1.791871,0.03885 -3.561821,0.632363 -5.022647,1.669072 -1.687639,1.182715 -2.9562316,2.872073 -3.9137966,4.677983 -1.1920055,2.257503 -1.9597335,4.715175 -2.505523,7.201839 -0.3858415,1.800179 -0.6659835,3.625348 -0.80031,5.462035 -0.012565,0.257627 -0.03997,0.520095 -0.02238,0.775615 0.069515,0.105708 0.065061,0.289183 0.21295,0.312494 0.2097865,0.112556 0.4516815,0.04717 0.6790585,0.06224 0.486595,-0.0083 0.97803,0.0051 1.4616265,-0.01664 0.1131335,-0.07195 0.297662,-0.07686 0.3176255,-0.236285 0.094393,-0.20057 0.04581,-0.430806 0.07834,-0.645701 0.133412,-1.888205 0.4252095,-3.764338 0.8496575,-5.608693 0.173371,-0.751467 0.3817555,-1.530072 0.6150935,-2.279042 0.106558,-0.34103 0.2236225,-0.695358 0.3386281,-1.012669 0.629216,-1.747904 1.439352,-3.457727 2.6154,-4.907951 0.90462,-1.108911 2.074003,-2.057997 3.466047,-2.462474 1.160575,-0.347836 2.400963,-0.314113 3.585559,-0.118651 1.481278,0.248728 2.877856,0.939665 3.989739,1.947255 0.858435,0.761703 1.567814,1.676702 2.184121,2.641078 0.05019,0.0833 0.139307,0.223145 0.203547,0.328903 1.269403,2.115379 2.115538,4.453042 2.801809,6.813619 0.330835,1.148859 0.61382,2.293673 0.873011,3.464201 0.341173,1.546609 0.626845,3.108679 0.883584,4.681922 0.4588,2.711788 1.111698,5.412843 2.233405,7.933046 0.888301,1.980306 2.101879,3.863428 3.794346,5.250115 1.523358,1.261104 3.423994,2.036149 5.383369,2.269354 2.991048,0.36393 6.09999,-0.33531 8.64179,-1.955233 2.006935,-1.265305 3.640245,-3.074265 4.81407,-5.127469 1.5741,-2.738012 2.383375,-5.85378 2.726755,-8.97594 0.21384,-1.958015 0.244165,-3.932944 0.15003,-5.899363 -0.06647,-0.09356 -0.08398,-0.244221 -0.18269,-0.300192 -0.141735,-0.05946 -0.287405,-0.08945 -0.440605,-0.0631 -0.58312,0.03413 -1.171975,0.04697 -1.751515,0.09441 -0.10972,0.07703 -0.295275,0.08967 -0.306085,0.250676 -0.09106,0.219375 -0.01585,0.461533 -0.025,0.692132 0.10445,3.005292 -0.105775,6.049081 -0.92857,8.952189 -0.655215,2.303282 -1.729135,4.529202 -3.374605,6.290945 -1.36145,1.473389 -3.136431,2.573998 -5.085771,3.06741 -0.495856,0.127403 -1.000999,0.217842 -1.50994,0.273146 -0.06712,0.0061 -0.221775,0.02244 -0.323619,0.02962 -1.611682,0.11839 -3.29192,-0.06252 -4.740225,-0.822254 -1.549486,-0.804089 -2.731806,-2.171373 -3.5915,-3.667156 -0.467264,-0.806379 -0.852634,-1.657834 -1.186517,-2.527253 -0.0363,-0.100519 -0.104223,-0.278981 -0.141054,-0.380162 -0.104531,-0.293081 -0.198337,-0.565461 -0.294482,-0.86872 -0.6155,-1.912062 -1.002833,-3.887926 -1.318037,-5.868991 -0.587641,-3.427532 -1.324934,-6.844051 -2.492999,-10.12544 -0.808816,-2.242033 -1.820631,-4.437734 -3.256683,-6.351989 -1.280995,-1.70537 -2.945391,-3.159125 -4.915397,-4.008654 -1.496705,-0.654077 -3.139496,-0.947219 -4.769611,-0.911277 z" />
</svg>
