<svg xmlns="http://www.w3.org/2000/svg" xmlns:svg="http://www.w3.org/2000/svg" id="Layer_1" width="256" height="256" data-name="Layer 1" version="1.1" viewBox="0 0 256 256"><title id="title820">Tauno Serial Plotter</title><metadata id="metadata13"/><defs id="defs4"><style id="style2"/><linearGradient id="SVGID_2_" x1="1.792" x2="1.792" y1="768.495" y2="767.795" gradientTransform="matrix(448,0,0,-448,-447,344513)" gradientUnits="userSpaceOnUse"><stop id="stop27" offset="0" style="stop-color:#4d4d4d"/><stop id="stop29" offset="1" style="stop-color:#444"/></linearGradient><linearGradient id="SVGID_3_" x1="1.987" x2="2.047" y1="767.586" y2="767.887" gradientTransform="matrix(256,0,0,-170.6667,-159,131463.47)" gradientUnits="userSpaceOnUse"><stop id="stop38" offset="0" style="stop-color:#ff9700"/><stop id="stop40" offset=".53" style="stop-color:#f48e00"/><stop id="stop42" offset="1" style="stop-color:#ce6e00"/></linearGradient><linearGradient id="SVGID_3_-2" x1="1.987" x2="2.047" y1="767.586" y2="767.887" gradientTransform="matrix(256,0,0,-170.6667,62.587857,131236.34)" gradientUnits="userSpaceOnUse"><stop id="stop38-9" offset="0" style="stop-color:#ff9700"/><stop id="stop40-1" offset=".53" style="stop-color:#f48e00"/><stop id="stop42-2" offset="1" style="stop-color:#ce6e00"/></linearGradient></defs><g style="stroke-width:1.0004;stroke-miterlimit:10;stroke-dasharray:none" id="g34" transform="matrix(0.81528662,0,0,0.81528662,-162.24203,-185.07006)"><linearGradient id="linearGradient173" x1="1.792" x2="1.792" y1="768.495" y2="767.795" gradientTransform="matrix(448,0,0,-448,-447,344513)" gradientUnits="userSpaceOnUse"><stop id="stop169" offset="0" style="stop-color:#4d4d4d"/><stop id="stop171" offset="1" style="stop-color:#444"/></linearGradient><g style="stroke-width:1.0004;stroke-miterlimit:10;stroke-dasharray:none" id="g198"><path style="fill:url(#SVGID_2_);stroke-width:1.0004;stroke-miterlimit:10;stroke-dasharray:none" id="path32" d="m 218.6,227 h 274.8 c 10.8,0 19.6,8.8 19.6,19.6 v 274.8 c 0,10.8 -8.8,19.6 -19.6,19.6 H 218.6 C 207.8,541 199,532.2 199,521.4 V 246.6 c 0,-10.8 8.8,-19.6 19.6,-19.6 z" class="st4"/></g></g><path style="line-height:normal;font-variant-ligatures:normal;font-variant-position:normal;font-variant-caps:normal;font-variant-numeric:normal;font-variant-alternates:normal;font-feature-settings:normal;text-indent:0;text-align:start;text-decoration:none;text-decoration-line:none;text-decoration-style:solid;text-decoration-color:#000;text-transform:none;text-orientation:mixed;white-space:normal;shape-padding:0;isolation:auto;mix-blend-mode:normal;solid-color:#000;solid-opacity:1;fill:#f7941d;fill-opacity:1;stroke:#f7941d;stroke-width:.780487;stroke-linecap:butt;stroke-linejoin:round;stroke-opacity:1" id="path8" d="m 71.172257,51.413111 c -7.167482,0.15542 -14.247284,2.529454 -20.090586,6.67629 -6.750556,4.73086 -11.824928,11.488292 -15.655189,18.711932 -4.768022,9.030012 -7.838934,18.8607 -10.022092,28.807357 -1.543366,7.20072 -2.663934,14.50139 -3.20124,21.84814 -0.05026,1.03051 -0.15988,2.08038 -0.08952,3.10246 0.27806,0.42283 0.260246,1.15673 0.8518,1.24998 0.839146,0.45022 1.806726,0.18868 2.716234,0.24896 1.94638,-0.0333 3.91212,0.0205 5.846506,-0.0666 0.452534,-0.28779 1.190648,-0.30745 1.270502,-0.94514 0.377572,-0.80228 0.18324,-1.72322 0.31336,-2.5828 0.533648,-7.55282 1.700838,-15.05735 3.39863,-22.43477 0.693485,-3.00587 1.527023,-6.120293 2.460375,-9.116171 0.426232,-1.364122 0.89449,-2.781432 1.354514,-4.050678 2.516862,-6.991616 5.757406,-13.830906 10.4616,-19.631802 3.61848,-4.435644 8.296012,-8.231988 13.864186,-9.849898 4.6423,-1.391342 9.603852,-1.25645 14.342238,-0.474602 5.925112,0.99491 11.511422,3.758658 15.958954,7.789018 3.43374,3.046812 6.271261,6.70681 8.736481,10.564312 0.20078,0.33322 0.55723,0.89258 0.81419,1.315614 5.07761,8.461516 8.46215,17.812167 11.20724,27.254477 1.32334,4.59543 2.45528,9.17469 3.49204,13.8568 1.36469,6.18644 2.50738,12.43472 3.53434,18.72769 1.8352,10.84715 4.44679,21.65137 8.93362,31.73219 3.5532,7.92122 8.40751,15.45371 15.17738,21.00046 6.09343,5.04441 13.69598,8.14459 21.53348,9.07741 11.96419,1.45572 24.39996,-1.34124 34.56716,-7.82093 8.02774,-5.06122 14.56098,-12.29706 19.25628,-20.50988 6.2964,-10.95204 9.5335,-23.41512 10.90702,-35.90376 0.85536,-7.83206 0.97666,-15.73177 0.60012,-23.59745 -0.26588,-0.37425 -0.33592,-0.97688 -0.73076,-1.20077 -0.56694,-0.23785 -1.14962,-0.35778 -1.76242,-0.25239 -2.33248,0.13652 -4.6879,0.1879 -7.00606,0.37766 -0.43888,0.30813 -1.1811,0.3587 -1.22434,1.0027 -0.36424,0.87751 -0.0634,1.84614 -0.1,2.76853 0.4178,12.02117 -0.4231,24.19633 -3.71428,35.80876 -2.62086,9.21313 -6.91654,18.11681 -13.49842,25.16378 -5.4458,5.89355 -12.54573,10.29599 -20.34309,12.26964 -1.98342,0.50961 -4.00399,0.87137 -6.03976,1.09258 -0.26848,0.0244 -0.8871,0.0898 -1.29447,0.11848 -6.44673,0.47356 -13.16768,-0.25007 -18.9609,-3.28901 -6.19795,-3.21636 -10.92723,-8.68549 -14.366,-14.66863 -1.86906,-3.22551 -3.41054,-6.63133 -4.74607,-10.10901 -0.14518,-0.40208 -0.41689,-1.11592 -0.56422,-1.52065 -0.41812,-1.17232 -0.79335,-2.26184 -1.17792,-3.47488 -2.46201,-7.64825 -4.01134,-15.5517 -5.27215,-23.47596 -2.35057,-13.71014 -5.29974,-27.37622 -9.972,-40.501777 C 119.70376,87.532659 115.6565,78.749855 109.91229,71.092835 104.78831,64.271357 98.130725,58.456337 90.250701,55.058221 84.263883,52.441913 77.692719,51.269343 71.172257,51.413111 Z"/></svg>