<svg xmlns="http://www.w3.org/2000/svg" xmlns:svg="http://www.w3.org/2000/svg" id="Layer_1" data-name="Layer 1" version="1.1" viewBox="0 0 328.82 328.82"><title id="title820">Tauno Serial Plotter</title><metadata id="metadata13"/><defs id="defs4"><style id="style2">.cls-1{fill:#353535;stroke:#e6e7e8;stroke-width:2.83px;stroke-miterlimit:10}</style></defs><rect id="rect6" width="325.98" height="325.98" x="1.42" y="1.42" stroke="none" class="cls-1" rx="72.62"/><path id="path8" fill="#f7941d" fill-opacity="1" fill-rule="nonzero" stroke="none" stroke-dasharray="none" stroke-dashoffset="0" stroke-linecap="butt" stroke-linejoin="miter" stroke-miterlimit="10" stroke-opacity="1" stroke-width="10" d="m 87.714844,68.02 c -14.165705,-0.0139 -25.630864,6.27116 -34.097656,15.330078 -8.466793,9.058919 -14.247403,20.793212 -18.365235,32.566402 -4.117831,11.77319 -6.544653,23.62316 -7.962891,33.01758 -1.418237,9.39442 -1.833109,15.88977 -1.818359,18.44532 l 10,-0.0586 c -0.0052,-0.90946 0.355894,-7.94458 1.707031,-16.89453 1.351138,-8.94995 3.684004,-20.25772 7.513672,-31.20703 C 48.521075,108.26991 53.876245,97.71866 60.923828,90.178203 67.970556,82.638661 76.398945,78.010031 87.701172,78.02 c 19.057158,0.03675 32.271658,9.119361 43.019528,26.80078 10.74788,17.68142 18.22375,44.00526 23.50391,76.39453 4.81636,29.54917 13.12717,49.21514 24.4043,61.73438 11.27738,12.51951 25.57417,17.35937 40.21093,17.35937 19.72754,0 39.47808,-8.64492 53.46094,-26.9707 13.98286,-18.32578 22.18839,-46.00834 20.32227,-83.96484 l -9.98633,0.49218 c 1.78387,36.2835 -6.10997,61.44703 -18.28711,77.40625 -12.17714,15.95922 -28.64731,23.03711 -45.50977,23.03711 -12.56323,0 -23.38113,-3.61725 -32.78125,-14.05273 -9.40012,-10.43549 -17.3292,-28.22066 -21.96289,-56.65039 C 158.71586,146.60521 151.20775,119.2735 139.26562,99.62742 127.3235,79.981342 110.14159,68.063246 87.71875,68.02 h -0.002 z" baseline-shift="baseline" clip-rule="nonzero" color="#000" color-interpolation="sRGB" color-interpolation-filters="linearRGB" color-rendering="auto" direction="ltr" display="inline" dominant-baseline="auto" enable-background="accumulate" font-family="sans-serif" font-size="medium" font-stretch="normal" font-style="normal" font-variant="normal" font-weight="normal" image-rendering="auto" letter-spacing="normal" opacity="1" overflow="visible" shape-rendering="auto" text-anchor="start" text-decoration="none" text-rendering="auto" vector-effect="none" visibility="visible" word-spacing="normal" writing-mode="lr-tb" style="line-height:normal;font-variant-ligatures:normal;font-variant-position:normal;font-variant-caps:normal;font-variant-numeric:normal;font-variant-alternates:normal;font-feature-settings:normal;text-indent:0;text-align:start;text-decoration-line:none;text-decoration-style:solid;text-decoration-color:#000;text-transform:none;text-orientation:mixed;white-space:normal;shape-padding:0;isolation:auto;mix-blend-mode:normal;solid-color:#000;solid-opacity:1"/></svg>