<?xml version="1.0" encoding="UTF-8" standalone="no"?>
<svg
   xmlns:dc="http://purl.org/dc/elements/1.1/"
   xmlns:cc="http://creativecommons.org/ns#"
   xmlns:rdf="http://www.w3.org/1999/02/22-rdf-syntax-ns#"
   xmlns:svg="http://www.w3.org/2000/svg"
   xmlns="http://www.w3.org/2000/svg"
   xmlns:sodipodi="http://sodipodi.sourceforge.net/DTD/sodipodi-0.dtd"
   xmlns:inkscape="http://www.inkscape.org/namespaces/inkscape"
   id="Layer_1"
   data-name="Layer 1"
   viewBox="0 0 328.82 328.82"
   version="1.1"
   sodipodi:docname="tauno-plotter.svg"
   inkscape:version="0.92.4 (5da689c313, 2019-01-14)">
  <title
     id="title820">Tauno Serial Plotter</title>
  <metadata
     id="metadata13">
    <rdf:RDF>
      <cc:Work
         rdf:about="">
        <dc:format>image/svg+xml</dc:format>
        <dc:type
           rdf:resource="http://purl.org/dc/dcmitype/StillImage" />
        <dc:title>Tauno Serial Plotter</dc:title>
        <dc:creator>
          <cc:Agent>
            <dc:title>Tauno Erik</dc:title>
          </cc:Agent>
        </dc:creator>
        <dc:date>13.03.2020</dc:date>
      </cc:Work>
    </rdf:RDF>
  </metadata>
  <sodipodi:namedview
     pagecolor="#ffffff"
     bordercolor="#666666"
     borderopacity="1"
     objecttolerance="10"
     gridtolerance="10"
     guidetolerance="10"
     inkscape:pageopacity="0"
     inkscape:pageshadow="2"
     inkscape:window-width="1920"
     inkscape:window-height="1163"
     id="namedview11"
     showgrid="false"
     inkscape:zoom="1.4354358"
     inkscape:cx="36.164056"
     inkscape:cy="184.83514"
     inkscape:window-x="1920"
     inkscape:window-y="0"
     inkscape:window-maximized="1"
     inkscape:current-layer="Layer_1" />
  <defs
     id="defs4">
    <style
       id="style2">.cls-1{fill:#353535;stroke:#e6e7e8;stroke-width:2.83px;}.cls-1,.cls-2{stroke-miterlimit:10;}.cls-2{fill:none;stroke:#f7941d;stroke-width:8.5px;}</style>
  </defs>
  <rect
     class="cls-1"
     x="1.42"
     y="1.42"
     width="325.98"
     height="325.98"
     rx="72.62"
     id="rect6"
     style="stroke:none" />
  <path
     style="color:#000000;font-style:normal;font-variant:normal;font-weight:normal;font-stretch:normal;font-size:medium;line-height:normal;font-family:sans-serif;font-variant-ligatures:normal;font-variant-position:normal;font-variant-caps:normal;font-variant-numeric:normal;font-variant-alternates:normal;font-feature-settings:normal;text-indent:0;text-align:start;text-decoration:none;text-decoration-line:none;text-decoration-style:solid;text-decoration-color:#000000;letter-spacing:normal;word-spacing:normal;text-transform:none;writing-mode:lr-tb;direction:ltr;text-orientation:mixed;dominant-baseline:auto;baseline-shift:baseline;text-anchor:start;white-space:normal;shape-padding:0;clip-rule:nonzero;display:inline;overflow:visible;visibility:visible;opacity:1;isolation:auto;mix-blend-mode:normal;color-interpolation:sRGB;color-interpolation-filters:linearRGB;solid-color:#000000;solid-opacity:1;vector-effect:none;fill:#f7941d;fill-opacity:1;fill-rule:nonzero;stroke:none;stroke-width:10;stroke-linecap:butt;stroke-linejoin:miter;stroke-miterlimit:10;stroke-dasharray:none;stroke-dashoffset:0;stroke-opacity:1;color-rendering:auto;image-rendering:auto;shape-rendering:auto;text-rendering:auto;enable-background:accumulate"
     d="m 87.714844,68.02 c -14.165705,-0.0139 -25.630864,6.27116 -34.097656,15.330078 -8.466793,9.058919 -14.247403,20.793212 -18.365235,32.566402 -4.117831,11.77319 -6.544653,23.62316 -7.962891,33.01758 -1.418237,9.39442 -1.833109,15.88977 -1.818359,18.44532 l 10,-0.0586 c -0.0052,-0.90946 0.355894,-7.94458 1.707031,-16.89453 1.351138,-8.94995 3.684004,-20.25772 7.513672,-31.20703 C 48.521075,108.26991 53.876245,97.71866 60.923828,90.178203 67.970556,82.638661 76.398945,78.010031 87.701172,78.02 c 19.057158,0.03675 32.271658,9.119361 43.019528,26.80078 10.74788,17.68142 18.22375,44.00526 23.50391,76.39453 4.81636,29.54917 13.12717,49.21514 24.4043,61.73438 11.27738,12.51951 25.57417,17.35937 40.21093,17.35937 19.72754,0 39.47808,-8.64492 53.46094,-26.9707 13.98286,-18.32578 22.18839,-46.00834 20.32227,-83.96484 l -9.98633,0.49218 c 1.78387,36.2835 -6.10997,61.44703 -18.28711,77.40625 -12.17714,15.95922 -28.64731,23.03711 -45.50977,23.03711 -12.56323,0 -23.38113,-3.61725 -32.78125,-14.05273 -9.40012,-10.43549 -17.3292,-28.22066 -21.96289,-56.65039 C 158.71586,146.60521 151.20775,119.2735 139.26562,99.62742 127.3235,79.981342 110.14159,68.063246 87.71875,68.02 h -0.002 z"
     id="path8"
     inkscape:connector-curvature="0" />
</svg>
